<svg width="115" height="30" viewBox="0 0 115 30" fill="none" xmlns="http://www.w3.org/2000/svg">
<path d="M16.3165 28.379H16.2479L6.95959 28.037C6.65915 28.026 6.36597 27.9411 6.10565 27.7897C5.84534 27.6384 5.62582 27.4252 5.46626 27.1688C5.30671 26.9123 5.21197 26.6205 5.19032 26.3188C5.16868 26.017 5.22079 25.7145 5.3421 25.4377L12.1176 10.0061C12.2454 9.71562 12.4453 9.46305 12.6981 9.27269C12.9509 9.08233 13.2481 8.96059 13.5611 8.91915C13.8741 8.87771 14.1925 8.91797 14.4856 9.03606C14.7788 9.15414 15.0368 9.3461 15.2349 9.59347L17.4487 12.3638C17.492 12.4182 17.5494 12.4595 17.6146 12.483C17.6798 12.5065 17.7502 12.5113 17.818 12.497L22.1345 11.6075C22.4697 11.5383 22.8174 11.5645 23.1386 11.6832C23.4597 11.8019 23.7417 12.0084 23.9526 12.2795C24.1636 12.5505 24.2953 12.8754 24.3329 13.2176C24.3704 13.5598 24.3125 13.9058 24.1654 14.2167L17.9716 27.3219C17.8229 27.6373 17.5886 27.9039 17.2958 28.091C17.0029 28.2781 16.6634 28.3779 16.3165 28.379ZM6.67694 26.0329C6.65221 26.0893 6.64149 26.1508 6.64569 26.2123C6.64989 26.2738 6.66889 26.3333 6.70106 26.3857C6.73322 26.4382 6.77758 26.4819 6.83031 26.5133C6.88303 26.5446 6.94254 26.5625 7.0037 26.5656L16.2936 26.9059C16.3673 26.9096 16.4404 26.891 16.5036 26.8526C16.5667 26.8143 16.6171 26.7578 16.6482 26.6905L22.8371 13.5837C22.867 13.52 22.8787 13.4491 22.8709 13.3791C22.863 13.309 22.836 13.2425 22.7928 13.1871C22.7495 13.1316 22.6918 13.0894 22.626 13.0651C22.5603 13.0407 22.4891 13.0353 22.4205 13.0494L18.1039 13.9405C17.7732 14.0081 17.4304 13.9825 17.1132 13.8664C16.7961 13.7504 16.517 13.5484 16.3067 13.2828L14.0945 10.5224C14.0547 10.4707 14.002 10.4306 13.9416 10.4063C13.8813 10.382 13.8156 10.3744 13.7514 10.3843C13.6872 10.3923 13.6262 10.4169 13.5743 10.4558C13.5225 10.4948 13.4816 10.5466 13.4557 10.6062L6.67694 26.0329Z" fill="#FB8B24"/>
<path d="M13.7778 21.0971C13.5036 21.0973 13.2328 21.0353 12.9856 20.9158C12.7384 20.7962 12.5211 20.6222 12.3499 20.4066L10.1295 17.6363C10.0858 17.5824 10.0283 17.5416 9.96324 17.5182C9.89819 17.4947 9.82803 17.4895 9.76026 17.5031L5.4437 18.3926C5.10889 18.4609 4.76177 18.434 4.44131 18.3149C4.12084 18.1957 3.83972 17.9891 3.62948 17.7181C3.41925 17.4471 3.28822 17.1225 3.25111 16.7808C3.214 16.439 3.27227 16.0936 3.41939 15.7834L9.60832 2.6782C9.76253 2.35162 10.0084 2.07763 10.3156 1.89005C10.6228 1.70247 10.9778 1.60953 11.3369 1.62269L20.6268 1.97288C20.9269 1.9843 21.2197 2.06941 21.4796 2.22078C21.7395 2.37216 21.9587 2.5852 22.118 2.84135C22.2773 3.0975 22.372 3.38898 22.3937 3.69038C22.4155 3.99178 22.3636 4.29396 22.2427 4.57057L15.4672 19.9939C15.3406 20.2856 15.1409 20.5392 14.8878 20.7299C14.6346 20.9207 14.3366 21.0421 14.0229 21.0823C13.9416 21.0922 13.8597 21.0971 13.7778 21.0971ZM9.84522 16.0234C10.1197 16.0231 10.3908 16.085 10.6383 16.2046C10.8858 16.3241 11.1033 16.4982 11.2748 16.7139L13.4903 19.4843C13.5306 19.5353 13.5834 19.5749 13.6436 19.5991C13.7038 19.6234 13.7692 19.6314 13.8334 19.6224C13.8975 19.6141 13.9584 19.5893 14.0102 19.5504C14.062 19.5115 14.1029 19.4599 14.1291 19.4004L20.9127 3.96718C20.9371 3.91089 20.9476 3.84948 20.9432 3.78823C20.9388 3.72698 20.9198 3.66771 20.8876 3.61549C20.8555 3.56328 20.8113 3.51969 20.7588 3.48845C20.7062 3.45721 20.6469 3.43926 20.586 3.43614L11.283 3.09416C11.2092 3.09109 11.1362 3.11006 11.0731 3.14868C11.01 3.1873 10.9597 3.24384 10.9284 3.31118L4.73789 16.4164C4.70797 16.4801 4.69627 16.551 4.7041 16.621C4.71194 16.6911 4.73899 16.7575 4.78223 16.813C4.82547 16.8684 4.88319 16.9107 4.94894 16.935C5.01469 16.9593 5.08587 16.9648 5.15451 16.9507L9.47598 16.0612C9.59743 16.0358 9.72117 16.0232 9.84522 16.0234Z" fill="#FB8B24"/>
<path d="M38.1098 11.869C37.4334 11.4563 36.0168 11.1883 35.0316 11.1883C33.7246 11.1883 33.0188 11.5796 33.0188 12.3392C33.0188 14.2825 39.1374 13.1875 39.1374 17.5247C39.1374 19.9004 37.35 21.4097 34.1069 21.4097C32.6087 21.4097 31.1513 21.099 30.2886 20.6452L30.5141 18.0853C31.2951 18.5786 32.8341 18.9945 34.1886 18.9945C35.6672 18.9945 36.3452 18.6016 36.3452 17.7746C36.3452 15.7704 30.2266 16.8868 30.2266 12.5891C30.2266 10.3169 32.0336 8.76819 34.9647 8.76819C36.1557 8.76819 37.716 8.99508 38.6195 9.42583L38.1098 11.869Z" fill="#132C8C"/>
<path d="M43.3654 9.37126C43.3726 9.55858 43.3416 9.74539 43.2743 9.92019C43.207 10.095 43.1048 10.2541 42.9741 10.3876C42.8434 10.5212 42.6868 10.6264 42.5142 10.6967C42.3415 10.7671 42.1564 10.8011 41.9701 10.7967C41.7806 10.8034 41.5918 10.7713 41.4149 10.7025C41.2381 10.6337 41.0769 10.5296 40.9412 10.3963C40.8054 10.2631 40.6979 10.1036 40.6251 9.92743C40.5523 9.75125 40.5158 9.56205 40.5176 9.37126C40.5176 8.56565 41.1336 7.96555 41.975 7.96555C42.1598 7.95956 42.3438 7.99187 42.5156 8.06048C42.6874 8.12909 42.8434 8.23253 42.9738 8.36437C43.1042 8.49621 43.2062 8.65363 43.2736 8.82685C43.341 9.00006 43.3722 9.18537 43.3654 9.37126ZM43.2429 21.2302H40.6287V12.1991L43.2429 12.0758V21.2302Z" fill="#132C8C"/>
<path d="M56.5866 21.2284V15.7947C56.5901 15.6745 56.5695 15.5549 56.5262 15.4428C56.4429 14.5961 55.9511 14.292 55.2322 14.292C55.1834 14.2873 55.1342 14.294 55.0884 14.3117C54.5101 14.3593 53.9526 14.5508 53.466 14.869C53.5019 15.1222 53.5161 15.378 53.5085 15.6335V21.2334H50.8944V15.7947C50.8973 15.6744 50.8762 15.5547 50.8323 15.4428C50.7506 14.5961 50.2572 14.292 49.5252 14.292C48.9159 14.3263 48.3271 14.5257 47.8212 14.869V21.2334H45.207V12.199L47.8212 12.0757V12.9224C48.3543 12.4934 48.9799 12.1961 49.6478 12.0543C50.0206 11.9901 50.4003 11.9763 50.7767 12.0132C51.7832 12.0757 52.5838 12.4884 53.0559 13.294C54.0215 12.3437 55.0263 11.9524 56.1145 11.9524C57.9623 11.9524 59.2187 12.9635 59.2187 15.2406V21.2317L56.5866 21.2284Z" fill="#132C8C"/>
<path d="M65.6417 21.4144C64.999 21.4405 64.3592 21.3137 63.7743 21.0445V25.0512H61.1602V12.1992L63.7743 12.0759V12.7336C64.4465 12.2036 65.2815 11.9262 66.1352 11.9493C68.3931 11.9493 70.1789 13.7052 70.1789 16.5758C70.1789 19.3692 68.2934 21.4144 65.6417 21.4144ZM65.2921 14.2248C64.7484 14.2136 64.2157 14.3803 63.7743 14.6999V18.894C64.2157 19.0519 64.6799 19.1352 65.1483 19.1406C66.5649 19.1406 67.4684 18.1904 67.4684 16.663C67.4765 15.1751 66.7086 14.2248 65.2921 14.2248Z" fill="#132C8C"/>
<path d="M74.202 21.2289H71.5879V8.24042L74.202 8.13684V21.2289Z" fill="#132C8C"/>
<path d="M78.3695 17.3241C78.6146 18.4602 79.621 19.0998 81.2843 19.0998C82.209 19.0998 83.3984 18.8318 84.0977 18.3977L84.199 20.6502C83.4818 21.1253 82.1257 21.4147 81.0948 21.4147C77.5641 21.4147 75.6133 19.5552 75.6133 16.6468C75.6133 13.8172 77.5641 11.9578 80.1504 11.9578C82.5325 11.9578 84.2562 13.4375 84.2562 15.9644C84.2498 16.421 84.2154 16.8767 84.1533 17.3291L78.3695 17.3241ZM78.2666 15.8148H81.8185V15.5468C81.8185 14.5341 81.1813 13.8534 80.1765 13.8534C79.108 13.8534 78.4104 14.5966 78.2666 15.8148Z" fill="#132C8C"/>
<path d="M89.6948 21.4145C88.3555 21.4201 87.0312 21.1311 85.8145 20.5678V8.237L88.4286 8.13342V12.6958C89.1141 12.1959 89.9431 11.9349 90.7895 11.9527C93.0882 11.9527 94.8332 13.7086 94.8332 16.5381C94.8332 19.4301 92.884 21.4145 89.6948 21.4145ZM89.9415 14.2248C89.3973 14.2136 88.8641 14.3804 88.422 14.7V18.8941C88.8639 19.0522 89.3288 19.1355 89.7977 19.1407C91.2142 19.1407 92.1178 18.1904 92.1178 16.663C92.1243 15.1751 91.3646 14.2248 89.948 14.2248H89.9415Z" fill="#132C8C"/>
<path d="M101.938 15.918L105.284 21.2284H102.266L99.9268 17.7561L98.8583 18.9957V21.2268H96.2441V8.23834L98.8583 8.13477V16.5016H98.9612C99.3876 15.7106 99.8795 14.9571 100.432 14.2492L102.299 12.0806L105.113 12.1842L101.938 15.918Z" fill="#132C8C"/>
<path d="M112.284 14.5554C111.709 14.2661 110.814 14.0803 109.964 14.0803C109.205 14.0803 108.835 14.3286 108.835 14.7626C108.835 15.7951 113.065 15.4202 113.065 18.4602C113.065 20.05 111.956 21.4196 109.247 21.4196C108.015 21.4196 106.742 21.1302 106.064 20.6748L106.208 18.4438C106.886 18.8992 108.097 19.2905 109.205 19.2905C110.022 19.2905 110.376 19.0439 110.376 18.5884C110.376 17.5346 106.146 17.9078 106.146 14.8497C106.146 13.2385 107.584 11.9578 109.986 11.9578C111.052 11.9578 112.059 12.1222 112.675 12.4115L112.284 14.5554Z" fill="#132C8C"/>
</svg>
